inDegrees=no
num_controls=7
num_derivatives=13
num_iterations=144
num_multipliers=7
num_parameters=0
num_slacks=7
num_states=26
objective=0.496472
objective_accelerations=0.043671
objective_balance=0.003660
objective_effort=0.040042
objective_height=0.403595
objective_ligament=0.005504
solver_duration=1663.816554
status=Solve_Succeeded
success=true
DataType=double
version=3
OpenSimVersion=4.5
endheader
time	/jointset/ground_pelvis/pelvis_tilt/value	/jointset/ground_pelvis/pelvis_tx/value	/jointset/ground_pelvis/pelvis_ty/value	/jointset/hip_r/hip_flexion_r/value	/jointset/hip_r/hip_adduction_r/value	/jointset/hip_r/hip_rotation_r/value	/jointset/back/lumbar_extension/value	/jointset/patellofemoral_r/patellar_flexion_r/value	/jointset/knee_r/knee_flexion_r/value	/jointset/knee_r/knee_adduction_r/value	/jointset/knee_r/knee_rotation_r/value	/jointset/ankle_r/ankle_angle_r/value	/jointset/subtalar_r/subtalar_angle_r/value	/jointset/ground_pelvis/pelvis_tilt/speed	/jointset/ground_pelvis/pelvis_tx/speed	/jointset/ground_pelvis/pelvis_ty/speed	/jointset/hip_r/hip_flexion_r/speed	/jointset/hip_r/hip_adduction_r/speed	/jointset/hip_r/hip_rotation_r/speed	/jointset/back/lumbar_extension/speed	/jointset/patellofemoral_r/patellar_flexion_r/speed	/jointset/knee_r/knee_flexion_r/speed	/jointset/knee_r/knee_adduction_r/speed	/jointset/knee_r/knee_rotation_r/speed	/jointset/ankle_r/ankle_angle_r/speed	/jointset/subtalar_r/subtalar_angle_r/speed	/forceset/tau_hip_flexion_r	/forceset/tau_hip_adduction_r	/forceset/tau_hip_rotation_r	/forceset/tau_knee_flexion_r	/forceset/tau_ankle_angle_r	/forceset/tau_subtalar_angle_r	/forceset/tau_lumbar_extension	lambda_cid13_p0	lambda_cid14_p0	lambda_cid14_p1	lambda_cid14_p2	lambda_cid14_p3	lambda_cid14_p4	lambda_cid14_p5	/jointset/ground_pelvis/pelvis_tilt/accel	/jointset/ground_pelvis/pelvis_tx/accel	/jointset/ground_pelvis/pelvis_ty/accel	/jointset/hip_r/hip_flexion_r/accel	/jointset/hip_r/hip_adduction_r/accel	/jointset/hip_r/hip_rotation_r/accel	/jointset/back/lumbar_extension/accel	/jointset/patellofemoral_r/patellar_flexion_r/accel	/jointset/knee_r/knee_flexion_r/accel	/jointset/knee_r/knee_adduction_r/accel	/jointset/knee_r/knee_rotation_r/accel	/jointset/ankle_r/ankle_angle_r/accel	/jointset/subtalar_r/subtalar_angle_r/accel	gamma_cid13_p0	gamma_cid14_p0	gamma_cid14_p1	gamma_cid14_p2	gamma_cid14_p3	gamma_cid14_p4	gamma_cid14_p5
1	-0.2648202667263657	0.00567964459062647	0.6874064950511428	1.354453950293136	-0.2304472163591327	-0.08743912996356965	-0.4363249748637228	1.322869925330692	1.322869925330687	-0.09900907123482286	0.1744770236738288	0.4363322856132247	0.1142395616819133	-0.0006506523602657139	0.003682245474989557	0.01346927752085975	-0.03607499191077022	0.003223613167771799	-0.01523668216153845	0.001386664761546701	-0.04320751265925315	-0.04320751265925322	-0.00782752404749072	-0.0004736167104124582	-0.00650549211324475	0.00322529680910618	-0.2576124005971958	0.01525196357066368	0.01212257299872787	-0.4930145643844674	-0.001420814266170232	0.009352355298255465	0.284536074545213	-0.04559238345167518	-49.17128174982762	-5.27862143155713	2.136290383196454	16.74327276382542	-796.8177857535111	65.37242249455575	1.194860454974042	0.09198175883215845	1.672128324735952	-5.127875882820891	0.1449162990664042	-0.2581844664286003	0.1491140909605189	-5.120924272749831	-5.120924272749947	0.9793002964510233	0.004081022199442969	-1.391760591324002	-0.3119430230953975	2.890796141849687e-09	2.476859739571004e-09	1.675240847846462e-08	2.030236435089174e-08	3.795796804527999e-09	-4.126290866009166e-09	2.430454778890017e-08
1.01	-0.2647680609896088	0.005721138997815044	0.6876246334396036	1.353837949352042	-0.2304077909237071	-0.0876029392545806	-0.4363015236387284	1.322182037324042	1.322182037324021	-0.09903693576730467	0.1744721129491147	0.4361976689472649	0.1142560943612725	0.01105316568754952	0.004626474160611504	0.03015565158127376	-0.08710033871313981	0.004658566124003267	-0.01752606727171207	0.003443150198043277	-0.09438146940294713	-0.09438146940294738	0.002261781252612268	-0.0005030180200745456	-0.02041670363376976	7.678846795799563e-05	-0.258592843324914	0.01547129221472656	0.01210983103094186	-0.4921029198685302	-0.002555727853919353	0.009442192332412239	0.2854615636985532	-0.04559598653271458	-49.54917885071567	-5.297175886098285	2.129429524736251	16.88566955892214	-797.1904619109901	65.27724183896895	1.152349321048812	0.09711922234573463	1.666477697225077	-5.086133690892116	0.1423552252994646	-0.2144467623809826	0.2548512640258895	-5.117339490267655	-5.117339490267613	1.024822003429711	-0.005613342055114771	-1.390631436161033	-0.3169615303617763	5.00490141879759e-09	6.1145877834714e-09	3.768254697216883e-08	4.097703371033987e-08	3.807526342981871e-10	-9.748005604970883e-09	5.556530470391337e-08
1.02	-0.264599975704101	0.005772370851643544	0.6880095527187748	1.352712441020534	-0.2303541018724397	-0.0877896686425074	-0.4362533204605593	1.320982068126938	1.3209820681269	-0.09896369197545771	0.1744670756844019	0.4359239741653504	0.1142410105990728	0.02252525738990684	0.005629734802974994	0.04682545566293215	-0.137976469993394	0.006076336336153311	-0.01982070154465532	0.006337055395806733	-0.1456237507501802	-0.1456237507501803	0.01239414081830654	-0.0004989247099801244	-0.0343211153040662	-0.003097991502679942	-0.2595732860526304	0.01569062085878782	0.01209708906316278	-0.4911912753525922	-0.003690641441669125	0.009532029366565817	0.286387052851895	-0.04560600536959319	-49.93757286114993	-5.313915333473225	2.11810642587804	17.04853055449071	-797.7296696247038	65.20695775791812	1.148515185882465	0.1037881501804613	1.668814328984828	-5.098032778397807	0.1414797502501203	-0.2592342989825291	0.3165980432138865	-5.134589193457653	-5.134589193457697	0.9879111495692737	0.01077994615074482	-1.390400621278293	-0.3171973489933496	6.803006176096174e-09	9.963357169443359e-09	5.671000185322123e-08	6.306769159817333e-08	-3.161366263513842e-09	-1.228203188006589e-08	8.323975941682889e-08
1.03	-0.2643183631194282	0.005833959184005832	0.6885609995996881	1.351079093144249	-0.2302863333474551	-0.08799941476969469	-0.4361719737490853	1.319269482398316	1.319269482398307	-0.0987889800917192	0.174462232977659	0.4355112787813037	0.1141940397528289	0.03375257936938107	0.006700694533248714	0.06345212664226227	-0.1886480277089312	0.007473063183088126	-0.02213071935104146	0.01007698164375177	-0.196889860187763	-0.1968898601877609	0.02255164246103827	-0.0004660955119412452	-0.0482160818452791	-0.006301839834267699	-0.2601547414390127	0.01583789808243609	0.01211790509462163	-0.4900830710166642	-0.004412396733574486	0.009574902878658042	0.2870056434624094	-0.04561576402123024	-50.16414949028808	-5.323838933131307	2.10697742153264	17.07399438219769	-797.7820732386177	65.10841270766785	1.103141862415844	0.1106629515669617	1.657821428706795	-5.044952677437538	0.1381370103568181	-0.2172094977663348	0.4243941272829431	-5.122093331379606	-5.122093331379252	1.030184123147675	8.49872474944155e-05	-1.388763842438872	-0.3228058314072696	8.597886438296294e-09	1.381428003849768e-08	7.571804159536901e-08	8.517279834854135e-08	-6.704781842219567e-09	-1.478455113001938e-08	1.108776192093148e-07
